<svg id="Calque_1" data-name="Calque 1" xmlns="http://www.w3.org/2000/svg" xmlns:xlink="http://www.w3.org/1999/xlink" viewBox="0 0 24 24"><defs><style>.cls-1{fill-opacity:0;fill:url(#Dégradé_sans_nom_14);}.cls-2{fill:url(#Dégradé_sans_nom_14-2);}.cls-3{fill:url(#Dégradé_sans_nom_14-3);}.cls-4{fill:url(#Dégradé_sans_nom_14-4);}</style><linearGradient id="Dégradé_sans_nom_14" y1="12" x2="24" y2="12" gradientUnits="userSpaceOnUse"><stop offset="0" stop-color="#ed709c"/><stop offset="1" stop-color="#f29274"/></linearGradient><linearGradient id="Dégradé_sans_nom_14-2" x1="9" y1="15.02" x2="22" y2="15.02" xlink:href="#Dégradé_sans_nom_14"/><linearGradient id="Dégradé_sans_nom_14-3" x1="2" y1="15" x2="8" y2="15" xlink:href="#Dégradé_sans_nom_14"/><linearGradient id="Dégradé_sans_nom_14-4" x1="2" y1="4" x2="8" y2="4" xlink:href="#Dégradé_sans_nom_14"/></defs><title>linkedin</title><rect class="cls-1" width="24" height="24"/><path class="cls-2" d="M20,22H18.33a2,2,0,0,1-2-2V14.63a.92.92,0,0,0-.69-.93.82.82,0,0,0-.67.19.85.85,0,0,0-.3.65V20a2,2,0,0,1-2,2H11a2,2,0,0,1-2-2V14.54a6.5,6.5,0,0,1,13,0V20A2,2,0,0,1,20,22ZM15.5,11.69H16a2.91,2.91,0,0,1,2.36,2.9V20H20V14.54a4.5,4.5,0,0,0-9,0V20h1.67V14.54A2.84,2.84,0,0,1,15.5,11.69Z"/><path class="cls-3" d="M6,22H4a2,2,0,0,1-2-2V10A2,2,0,0,1,4,8H6a2,2,0,0,1,2,2V20A2,2,0,0,1,6,22ZM4,10V20H6V10Z"/><path class="cls-4" d="M5,7A3,3,0,1,1,8,4,3,3,0,0,1,5,7ZM5,3A1,1,0,1,0,6,4,1,1,0,0,0,5,3Z"/></svg>