<svg id="Calque_1" data-name="Calque 1" xmlns="http://www.w3.org/2000/svg" xmlns:xlink="http://www.w3.org/1999/xlink" viewBox="0 0 88.56 35.02"><defs><style>.cls-1{fill:url(#Dégradé_sans_nom_86);}.cls-2{fill:url(#Dégradé_sans_nom_86-2);}.cls-3{fill:url(#Dégradé_sans_nom_86-3);}.cls-4{fill:url(#Dégradé_sans_nom_86-4);}.cls-5{fill:url(#Dégradé_sans_nom_86-5);}.cls-6{fill:url(#Dégradé_sans_nom_86-6);}.cls-7{fill:url(#Dégradé_sans_nom_86-7);}.cls-8{fill:url(#Dégradé_sans_nom_86-8);}.cls-9{fill:url(#Dégradé_sans_nom_86-9);}.cls-10{fill:url(#Dégradé_sans_nom_86-10);}.cls-11{fill:url(#Dégradé_sans_nom_86-11);}.cls-12{fill:url(#Dégradé_sans_nom_86-12);}.cls-13{fill:url(#Dégradé_sans_nom_86-13);}</style><linearGradient id="Dégradé_sans_nom_86" x1="54.95" y1="12.31" x2="68.71" y2="12.31" gradientUnits="userSpaceOnUse"><stop offset="0" stop-color="#606d89"/><stop offset="0" stop-color="#646d8a"/><stop offset="0" stop-color="#8e6e8f"/><stop offset="0" stop-color="#b06f94"/><stop offset="0" stop-color="#cb6f97"/><stop offset="0" stop-color="#de709a"/><stop offset="0" stop-color="#e9709b"/><stop offset="0" stop-color="#ed709c"/><stop offset="1" stop-color="#f29274"/></linearGradient><linearGradient id="Dégradé_sans_nom_86-2" x1="54.95" y1="28.79" x2="68.71" y2="28.79" xlink:href="#Dégradé_sans_nom_86"/><linearGradient id="Dégradé_sans_nom_86-3" x1="54.95" y1="34.22" x2="68.71" y2="34.22" xlink:href="#Dégradé_sans_nom_86"/><linearGradient id="Dégradé_sans_nom_86-4" x1="261.45" y1="245.51" x2="289.59" y2="245.51" xlink:href="#Dégradé_sans_nom_86"/><linearGradient id="Dégradé_sans_nom_86-5" x1="261.45" y1="245.52" x2="295.06" y2="245.52" xlink:href="#Dégradé_sans_nom_86"/><linearGradient id="Dégradé_sans_nom_86-6" x1="206.5" y1="248" x2="233.28" y2="248" gradientTransform="translate(-110.96 228.13) rotate(-45)" xlink:href="#Dégradé_sans_nom_86"/><linearGradient id="Dégradé_sans_nom_86-7" x1="206.57" y1="259.77" x2="219.9" y2="259.77" gradientTransform="translate(-121.23 226.86) rotate(-45)" xlink:href="#Dégradé_sans_nom_86"/><linearGradient id="Dégradé_sans_nom_86-8" x1="206.52" y1="254.54" x2="228.69" y2="254.54" gradientTransform="translate(-116.26 228.42) rotate(-45)" xlink:href="#Dégradé_sans_nom_86"/><linearGradient id="Dégradé_sans_nom_86-9" x1="231.36" y1="243.03" x2="251.07" y2="243.03" gradientTransform="translate(242.5 -99.39) rotate(45)" xlink:href="#Dégradé_sans_nom_86"/><linearGradient id="Dégradé_sans_nom_86-10" x1="236.35" y1="249.86" x2="251.13" y2="249.86" gradientTransform="translate(248.07 -99.17) rotate(45)" xlink:href="#Dégradé_sans_nom_86"/><linearGradient id="Dégradé_sans_nom_86-11" x1="237.51" y1="258.9" x2="251.05" y2="258.9" gradientTransform="translate(254.62 -96.9) rotate(45)" xlink:href="#Dégradé_sans_nom_86"/><linearGradient id="Dégradé_sans_nom_86-12" x1="206.57" y1="266.8" x2="209.14" y2="266.8" gradientTransform="translate(-127.78 225.12) rotate(-45)" xlink:href="#Dégradé_sans_nom_86"/><linearGradient id="Dégradé_sans_nom_86-13" x1="248.43" y1="266.8" x2="251.05" y2="266.8" gradientTransform="translate(261.81 -98.45) rotate(45)" xlink:href="#Dégradé_sans_nom_86"/></defs><title>logo</title><rect class="cls-1" x="54.95" y="11.51" width="13.76" height="1.61" rx="0.8"/><rect class="cls-2" x="54.95" y="27.99" width="13.76" height="1.61" rx="0.8"/><rect class="cls-3" x="54.95" y="33.41" width="13.76" height="1.61" rx="0.8"/><path class="cls-4" d="M283.3,251.8H262.25a.8.8,0,0,1-.8-.8h0a.8.8,0,0,1,.8-.81h20.4s5.23.25,5.23-4.68-5.34-4.68-5.34-4.68H262.25a.8.8,0,0,1-.8-.8h0a.81.81,0,0,1,.8-.81h20.83s6.51.21,6.51,6.27S283.3,251.8,283.3,251.8Z" transform="translate(-206.5 -233.17)"/><path class="cls-5" d="M283.3,257.28H262.25a.8.8,0,0,1-.8-.8h0a.8.8,0,0,1,.8-.8h19.69a13.71,13.71,0,0,0,5.34-1,9.35,9.35,0,0,0,6.14-9.15c0-5.42-3-7.95-5.63-9.13a11.88,11.88,0,0,0-4.92-1H262.25a.8.8,0,0,1-.8-.8h0a.81.81,0,0,1,.8-.81h20.6a12.1,12.1,0,0,1,3.73.57c3.22,1,8.48,3.85,8.48,11.19C295.06,256.81,283.3,257.28,283.3,257.28Z" transform="translate(-206.5 -233.17)"/><rect class="cls-6" x="201.38" y="246.97" width="37.02" height="2.06" rx="1.03" transform="translate(33.27 -316.02) rotate(45)"/><rect class="cls-7" x="204.16" y="258.91" width="18.13" height="1.74" rx="0.87" transform="translate(39.64 -307.87) rotate(45)"/><rect class="cls-8" x="202.35" y="253.52" width="30.5" height="2.06" rx="1.03" transform="translate(37.22 -312.49) rotate(45)"/><rect class="cls-9" x="227.71" y="242" width="27.03" height="2.06" rx="1.03" transform="translate(-307.7 8.58) rotate(-45)"/><rect class="cls-10" x="233.72" y="248.83" width="20.05" height="2.06" rx="1.03" transform="translate(-311.79 12.36) rotate(-45)"/><rect class="cls-11" x="235.13" y="257.87" width="18.31" height="2.06" rx="1.03" transform="translate(-318.03 15.39) rotate(-45)"/><rect class="cls-12" x="206.46" y="265.77" width="2.78" height="2.06" rx="1.03" transform="translate(43.04 -302) rotate(45)"/><rect class="cls-13" x="248.31" y="265.77" width="2.86" height="2.06" rx="1.03" transform="translate(-322.01 21.57) rotate(-45)"/></svg>