<svg id="Calque_1" data-name="Calque 1" xmlns="http://www.w3.org/2000/svg" xmlns:xlink="http://www.w3.org/1999/xlink" viewBox="0 0 24 24"><defs><style>.cls-1{fill-opacity:0;fill:url(#Dégradé_sans_nom_13);}.cls-2{fill:url(#Dégradé_sans_nom_13-3);}</style><linearGradient id="Dégradé_sans_nom_13" y1="12" x2="24" y2="12" gradientUnits="userSpaceOnUse"><stop offset="0" stop-color="#ed709c"/><stop offset="1" stop-color="#f29274"/></linearGradient><linearGradient id="Dégradé_sans_nom_13-3" x1="5" x2="18" xlink:href="#Dégradé_sans_nom_13"/></defs><title>facebook</title><rect class="cls-1" width="24" height="24"/><rect class="cls-1" width="24" height="24"/><path class="cls-2" d="M13,22H9a1,1,0,0,1-1-1V14.8H6a1,1,0,0,1-1-1V10.2a1,1,0,0,1,1-1H8V7.5A5.78,5.78,0,0,1,14,2h3a1,1,0,0,1,1,1V6.6a1,1,0,0,1-1,1H14V9.2h3a1,1,0,0,1,.8.39,1,1,0,0,1,.16.88l-1,3.6a1,1,0,0,1-1,.73H14V21A1,1,0,0,1,13,22Zm-3-2h2V13.8a1,1,0,0,1,1-1h2.24l.44-1.6H13a1,1,0,0,1-1-1V7.5a2,2,0,0,1,2-1.9h2V4H14a3.77,3.77,0,0,0-4,3.5v2.7a1,1,0,0,1-1,1H7v1.6H9a1,1,0,0,1,1,1Z"/></svg>